<svg width="414" height="896" viewBox="0 0 414 896" fill="none" xmlns="http://www.w3.org/2000/svg">
<g clip-path="url(#clip0)">
<rect width="414" height="896" fill="#F4F4F4"/>
<g filter="url(#filter0_d)">
<path d="M0 0L414 0L0 414L0 0Z" fill="#A2A1DE"/>
<path d="M0 0L414 0L0 414L0 0Z" stroke="#A2A1DE"/>
</g>
<g filter="url(#filter1_d)">
<path d="M0 288V0H295.5L0 288Z" fill="#62609D"/>
<path d="M0 288V0H295.5L0 288Z" stroke="#62609D"/>
</g>
<path d="M308.747 532.68V561.292C308.747 566.467 312.947 570.667 318.121 570.667H339.15C344.325 570.667 348.525 566.467 348.525 561.292V532.68H308.747Z" fill="#62609D"/>
<path d="M65.4752 532.68V561.292C65.4752 566.467 69.6753 570.667 74.8501 570.667H95.878C101.053 570.667 105.253 566.467 105.253 561.292V532.68H65.4752Z" fill="#62609D"/>
<path d="M350.175 419.346H339.45C335.681 419.346 332.625 422.402 332.625 426.171C332.625 429.94 329.568 432.996 325.8 432.996H319.893L322.603 437.393H350.174C353.943 437.393 356.999 434.337 356.999 430.568V426.171C357 422.402 353.944 419.346 350.175 419.346Z" fill="#A2A1DE"/>
<path d="M88.1997 432.996C84.431 432.996 81.3748 429.94 81.3748 426.171C81.3748 422.402 78.3185 419.346 74.5498 419.346H63.825C60.0563 419.346 57 422.402 57 426.171V430.568C57 434.337 60.0563 437.393 63.825 437.393H91.3968L94.1063 432.996H88.1997V432.996Z" fill="#A2A1DE"/>
<path d="M318.722 421.568C311.597 397.034 298.641 377.984 272.035 374.327C242.972 370.334 171.048 370.334 141.985 374.327C115.369 377.993 102.413 397.034 95.2979 421.568C87.0855 449.768 65.4855 448.352 65.4855 482.937V539.646H348.544V482.937C348.535 449.421 326.531 448.409 318.722 421.568Z" fill="#F3F3F3"/>
<path d="M321.272 438.33C318.282 433.84 315.844 428.787 314.222 423.274C312.694 418.043 310.735 412.708 308.4 407.403C301.8 392.431 287.616 381.453 271.388 379.109C242.663 375.031 171.919 374.946 142.613 379.109C117.873 382.671 106.256 401.084 99.7692 423.274C98.1565 428.796 95.7099 433.831 92.7195 438.33C168.797 444.321 245.212 444.321 321.272 438.33Z" fill="#A2A1DE"/>
<path d="M340.294 507.349C340.294 507.349 333.965 511.465 308.325 514.634C282.684 517.802 280.781 537.743 280.781 537.743H323.522C346.622 531.096 340.294 507.349 340.294 507.349Z" fill="#CACACA"/>
<path d="M325.209 451.174C301.378 460.896 299.793 461.14 284.522 472.399C293.231 457.549 315.328 451.099 325.209 451.174Z" fill="#CACACA"/>
<path d="M88.7906 451.174C120.169 463.981 120.103 465.481 129.478 472.399C120.984 457.915 99.3747 451.09 88.7906 451.174Z" fill="#CACACA"/>
<path d="M277.763 524.974L272.859 535.109H141.14L136.237 524.974H277.763Z" fill="#CACACA"/>
<path d="M105.684 514.634C80.0436 511.465 73.7153 507.349 73.7153 507.349C73.7153 507.349 67.387 531.096 90.4965 537.743H133.219C133.219 537.743 131.325 517.793 105.684 514.634Z" fill="#CACACA"/>
<path d="M331.903 467.721C301.566 465.134 280.987 488.562 280.987 488.562C280.987 488.562 276.347 491.252 311.006 495.106C327.582 496.943 335.166 491.121 338.578 484.54C342.159 477.611 338.363 468.274 331.903 467.721Z" fill="#62609D"/>
<path d="M133.237 488.562C133.237 488.562 112.584 465.134 82.1343 467.721C75.6471 468.274 71.8403 477.611 75.4314 484.531C78.8532 491.112 86.4655 496.934 103.107 495.096C137.897 491.252 133.237 488.562 133.237 488.562Z" fill="#62609D"/>
<path d="M348.535 539.646V545.027C348.535 549.396 344.982 552.93 340.613 552.93H73.3969C69.0282 552.93 65.4752 549.396 65.4752 545.027V539.646H348.535Z" fill="#6F6F6F"/>
<path d="M289.275 501.396C274.584 484.615 253.359 474.996 231.056 474.996H182.943C160.64 474.996 139.425 484.615 124.725 501.396C119.953 506.842 123.825 515.374 131.062 515.374H282.937C290.175 515.374 294.047 506.843 289.275 501.396Z" fill="#777777"/>
<path d="M171.994 487.371H241.996C243.581 487.371 244.874 486.087 244.874 484.493C244.874 482.9 243.59 481.615 241.996 481.615H171.994C170.4 481.615 169.116 482.9 169.116 484.493C169.116 486.087 170.409 487.371 171.994 487.371Z" fill="#6F6F6F"/>
<path d="M163.331 498.087H250.66C252.244 498.087 253.538 496.802 253.538 495.209C253.538 493.625 252.253 492.331 250.66 492.331H163.331C161.747 492.331 160.453 493.615 160.453 495.209C160.462 496.802 161.747 498.087 163.331 498.087Z" fill="#6F6F6F"/>
<path d="M261.31 503.056H152.691C151.106 503.056 149.812 504.34 149.812 505.934C149.812 507.518 151.097 508.812 152.691 508.812H261.31C262.894 508.812 264.188 507.527 264.188 505.934C264.188 504.34 262.894 503.056 261.31 503.056Z" fill="#6F6F6F"/>
<path d="M324.375 489.565C329.62 489.565 333.872 485.313 333.872 480.068C333.872 474.823 329.62 470.571 324.375 470.571C319.13 470.571 314.878 474.823 314.878 480.068C314.878 485.313 319.13 489.565 324.375 489.565Z" fill="#A2A1DE"/>
<path d="M89.5877 489.565C94.8327 489.565 99.0846 485.313 99.0846 480.068C99.0846 474.823 94.8327 470.571 89.5877 470.571C84.3426 470.571 80.0907 474.823 80.0907 480.068C80.0907 485.313 84.3426 489.565 89.5877 489.565Z" fill="#A2A1DE"/>
<path d="M71.2822 661.159H90.9844V686.098H98.1255V661.159H117.828V710.927H98.1255V691.627H90.9844V710.927H71.2822V661.159ZM174.078 713.454C174.078 725.001 168.279 730.775 156.683 730.775H154.412V673.646H174.078V713.454ZM127.422 673.646H147.674V711H144.378C135.394 711 130.035 707.948 128.301 701.845C127.715 699.867 127.422 697.584 127.422 694.997V673.646ZM209.234 673.646H212.054C218.06 673.646 222.674 675.502 225.896 679.213C228.802 682.582 230.254 687.05 230.254 692.616C230.254 698.28 228.643 702.724 225.42 705.946C222.051 709.315 217.291 711 211.138 711H209.234V673.646ZM183.599 673.646H203.301V723.451H183.599V673.646ZM266.18 673.646H268.597C277.825 673.646 283.453 676.771 285.479 683.021C286.138 685.097 286.468 687.501 286.468 690.236V694.264H266.18V673.646ZM239.739 692.763C239.739 690.077 240.093 687.587 240.801 685.292C241.509 682.973 242.608 680.946 244.097 679.213C247.32 675.502 251.934 673.646 257.94 673.646H260.76V711H258.855C252.703 711 247.942 709.315 244.573 705.946C241.351 702.724 239.739 698.329 239.739 692.763ZM266.18 701.442H284.49V702.467C284.49 704.738 283.672 706.654 282.037 708.217C280.035 710.072 277.19 711 273.504 711H266.18V701.442ZM323.785 684.047C323.785 677.113 328.265 673.646 337.225 673.646H342.352V692.323H323.785V684.047ZM298.15 673.646H318.511V711H298.15V673.646ZM153.826 746.159H174.041V771.793H171.441C165.142 771.793 160.625 770.707 157.891 768.534C155.181 766.361 153.826 762.663 153.826 757.438V746.159ZM146.502 796C142.547 796 139.031 794.535 135.955 791.605C133.245 789.018 131.121 785.575 129.583 781.278C128.167 777.323 127.459 773.405 127.459 769.523C127.459 763.688 128.899 758.5 131.78 753.959C133.831 750.736 136.529 748.466 139.874 747.147C141.583 746.488 143.487 746.159 145.586 746.159H148.406V796H146.502ZM153.826 786.442H172.137V787.467C172.137 789.738 171.319 791.654 169.683 793.217C167.681 795.072 164.837 796 161.15 796H153.826V786.442ZM210.04 758.646H230.254V796H227.947C221.6 796 217.034 794.889 214.251 792.667C211.443 790.421 210.04 786.71 210.04 781.535V758.646ZM183.599 777.763C183.599 775.077 183.953 772.587 184.661 770.292C185.369 767.973 186.468 765.946 187.957 764.213C191.18 760.502 195.794 758.646 201.8 758.646H204.62V796H202.715C196.563 796 191.802 794.315 188.433 790.946C185.21 787.724 183.599 783.329 183.599 777.763ZM267.608 769.047C267.608 762.113 272.088 758.646 281.048 758.646H286.175V777.323H267.608V769.047ZM241.973 758.646H262.334V796H241.973V758.646Z" fill="#62609D"/>
</g>
<defs>
<filter id="filter0_d" x="-6.5" y="-6.5" width="435.707" height="435.707" filterUnits="userSpaceOnUse" color-interpolation-filters="sRGB">
<feFlood flood-opacity="0" result="BackgroundImageFix"/>
<feColorMatrix in="SourceAlpha" type="matrix" values="0 0 0 0 0 0 0 0 0 0 0 0 0 0 0 0 0 0 127 0" result="hardAlpha"/>
<feOffset dx="4" dy="4"/>
<feGaussianBlur stdDeviation="5"/>
<feComposite in2="hardAlpha" operator="out"/>
<feColorMatrix type="matrix" values="0 0 0 0 0 0 0 0 0 0 0 0 0 0 0 0 0 0 0.25 0"/>
<feBlend mode="normal" in2="BackgroundImageFix" result="effect1_dropShadow"/>
<feBlend mode="normal" in="SourceGraphic" in2="effect1_dropShadow" result="shape"/>
</filter>
<filter id="filter1_d" x="-3.5" y="-3.5" width="307.229" height="299.686" filterUnits="userSpaceOnUse" color-interpolation-filters="sRGB">
<feFlood flood-opacity="0" result="BackgroundImageFix"/>
<feColorMatrix in="SourceAlpha" type="matrix" values="0 0 0 0 0 0 0 0 0 0 0 0 0 0 0 0 0 0 127 0" result="hardAlpha"/>
<feOffset dx="2" dy="2"/>
<feGaussianBlur stdDeviation="2.5"/>
<feComposite in2="hardAlpha" operator="out"/>
<feColorMatrix type="matrix" values="0 0 0 0 0 0 0 0 0 0 0 0 0 0 0 0 0 0 0.25 0"/>
<feBlend mode="normal" in2="BackgroundImageFix" result="effect1_dropShadow"/>
<feBlend mode="normal" in="SourceGraphic" in2="effect1_dropShadow" result="shape"/>
</filter>
<clipPath id="clip0">
<rect width="414" height="896" fill="white"/>
</clipPath>
</defs>
</svg>
