<svg width="414" height="896" viewBox="0 0 414 896" fill="none" xmlns="http://www.w3.org/2000/svg">
<g clip-path="url(#clip0)">
<rect width="414" height="896" fill="#F4F4F4"/>
<g filter="url(#filter0_d)">
<path d="M414 896H0L414 608V896Z" fill="#A2A1DE"/>
<path d="M414 896H0L414 608V896Z" stroke="#A2A1DE"/>
</g>
<g filter="url(#filter1_d)">
<path d="M414 683V896H123L414 683Z" fill="#62609D"/>
<path d="M414 683V896H123L414 683Z" stroke="#62609D"/>
</g>
<path d="M308.747 590.68V619.292C308.747 624.467 312.947 628.667 318.121 628.667H339.15C344.325 628.667 348.525 624.467 348.525 619.292V590.68H308.747Z" fill="#62609D"/>
<path d="M65.4751 590.68V619.292C65.4751 624.467 69.6752 628.667 74.85 628.667H95.8778C101.053 628.667 105.253 624.467 105.253 619.292V590.68H65.4751Z" fill="#62609D"/>
<path d="M350.175 477.346H339.45C335.681 477.346 332.625 480.402 332.625 484.171C332.625 487.94 329.568 490.996 325.8 490.996H319.893L322.602 495.393H350.174C353.943 495.393 356.999 492.337 356.999 488.568V484.171C357 480.402 353.944 477.346 350.175 477.346Z" fill="#A2A1DE"/>
<path d="M88.1997 490.996C84.431 490.996 81.3748 487.94 81.3748 484.171C81.3748 480.402 78.3185 477.346 74.5498 477.346H63.825C60.0563 477.346 57 480.402 57 484.171V488.568C57 492.337 60.0563 495.393 63.825 495.393H91.3968L94.1063 490.996H88.1997V490.996Z" fill="#A2A1DE"/>
<path d="M318.722 479.568C311.597 455.034 298.641 435.984 272.035 432.327C242.972 428.334 171.047 428.334 141.985 432.327C115.369 435.993 102.413 455.034 95.2977 479.568C87.0854 507.768 65.4854 506.352 65.4854 540.937V597.646H348.543V540.937C348.534 507.421 326.531 506.409 318.722 479.568Z" fill="#F3F3F3"/>
<path d="M321.272 496.33C318.282 491.84 315.844 486.787 314.222 481.274C312.694 476.043 310.735 470.708 308.4 465.403C301.8 450.431 287.616 439.453 271.388 437.109C242.663 433.031 171.919 432.946 142.613 437.109C117.873 440.671 106.256 459.084 99.7692 481.274C98.1565 486.796 95.7099 491.831 92.7195 496.33C168.797 502.321 245.212 502.321 321.272 496.33Z" fill="#A2A1DE"/>
<path d="M340.294 565.349C340.294 565.349 333.965 569.465 308.325 572.634C282.684 575.802 280.781 595.743 280.781 595.743H323.522C346.622 589.096 340.294 565.349 340.294 565.349Z" fill="#CACACA"/>
<path d="M325.209 509.174C301.378 518.896 299.794 519.14 284.522 530.399C293.231 515.549 315.328 509.099 325.209 509.174Z" fill="#CACACA"/>
<path d="M88.7908 509.174C120.169 521.981 120.104 523.481 129.478 530.399C120.984 515.915 99.3748 509.09 88.7908 509.174Z" fill="#CACACA"/>
<path d="M277.763 582.974L272.859 593.109H141.14L136.238 582.974H277.763Z" fill="#CACACA"/>
<path d="M105.684 572.634C80.0436 569.465 73.7153 565.349 73.7153 565.349C73.7153 565.349 67.387 589.096 90.4965 595.743H133.219C133.219 595.743 131.325 575.793 105.684 572.634Z" fill="#CACACA"/>
<path d="M331.903 525.721C301.566 523.134 280.987 546.562 280.987 546.562C280.987 546.562 276.347 549.252 311.006 553.106C327.582 554.943 335.166 549.121 338.578 542.54C342.159 535.611 338.362 526.274 331.903 525.721Z" fill="#62609D"/>
<path d="M133.237 546.562C133.237 546.562 112.584 523.134 82.1342 525.721C75.647 526.274 71.8402 535.611 75.4313 542.531C78.8531 549.112 86.4654 554.934 103.106 553.096C137.897 549.252 133.237 546.562 133.237 546.562Z" fill="#62609D"/>
<path d="M348.534 597.646V603.027C348.534 607.396 344.981 610.93 340.613 610.93H73.3968C69.0281 610.93 65.4751 607.396 65.4751 603.027V597.646H348.534Z" fill="#6F6F6F"/>
<path d="M289.275 559.396C274.584 542.615 253.359 532.996 231.056 532.996H182.943C160.64 532.996 139.425 542.615 124.725 559.396C119.953 564.842 123.825 573.374 131.062 573.374H282.937C290.175 573.374 294.047 564.843 289.275 559.396Z" fill="#777777"/>
<path d="M171.994 545.371H241.996C243.581 545.371 244.874 544.087 244.874 542.493C244.874 540.9 243.59 539.615 241.996 539.615H171.994C170.4 539.615 169.116 540.9 169.116 542.493C169.116 544.087 170.409 545.371 171.994 545.371Z" fill="#6F6F6F"/>
<path d="M163.331 556.087H250.66C252.244 556.087 253.538 554.802 253.538 553.209C253.538 551.625 252.253 550.331 250.66 550.331H163.331C161.747 550.331 160.453 551.615 160.453 553.209C160.462 554.802 161.747 556.087 163.331 556.087Z" fill="#6F6F6F"/>
<path d="M261.31 561.056H152.691C151.106 561.056 149.812 562.34 149.812 563.934C149.812 565.518 151.097 566.812 152.691 566.812H261.31C262.894 566.812 264.188 565.527 264.188 563.934C264.188 562.34 262.894 561.056 261.31 561.056Z" fill="#6F6F6F"/>
<path d="M324.375 547.565C329.62 547.565 333.872 543.313 333.872 538.068C333.872 532.823 329.62 528.571 324.375 528.571C319.13 528.571 314.878 532.823 314.878 538.068C314.878 543.313 319.13 547.565 324.375 547.565Z" fill="#A2A1DE"/>
<path d="M89.5878 547.565C94.8328 547.565 99.0848 543.313 99.0848 538.068C99.0848 532.823 94.8328 528.571 89.5878 528.571C84.3428 528.571 80.0908 532.823 80.0908 538.068C80.0908 543.313 84.3428 547.565 89.5878 547.565Z" fill="#A2A1DE"/>
<path d="M71.2822 656.159H90.9844V681.098H98.1255V656.159H117.828V705.927H98.1255V686.627H90.9844V705.927H71.2822V656.159ZM174.078 708.454C174.078 720.001 168.279 725.775 156.683 725.775H154.412V668.646H174.078V708.454ZM127.422 668.646H147.674V706H144.378C135.394 706 130.035 702.948 128.301 696.845C127.715 694.867 127.422 692.584 127.422 689.997V668.646ZM209.234 668.646H212.054C218.06 668.646 222.674 670.502 225.896 674.213C228.802 677.582 230.254 682.05 230.254 687.616C230.254 693.28 228.643 697.724 225.42 700.946C222.051 704.315 217.291 706 211.138 706H209.234V668.646ZM183.599 668.646H203.301V718.451H183.599V668.646ZM266.18 668.646H268.597C277.825 668.646 283.453 671.771 285.479 678.021C286.138 680.097 286.468 682.501 286.468 685.236V689.264H266.18V668.646ZM239.739 687.763C239.739 685.077 240.093 682.587 240.801 680.292C241.509 677.973 242.608 675.946 244.097 674.213C247.32 670.502 251.934 668.646 257.94 668.646H260.76V706H258.855C252.703 706 247.942 704.315 244.573 700.946C241.351 697.724 239.739 693.329 239.739 687.763ZM266.18 696.442H284.49V697.467C284.49 699.738 283.672 701.654 282.037 703.217C280.035 705.072 277.19 706 273.504 706H266.18V696.442ZM323.785 679.047C323.785 672.113 328.265 668.646 337.225 668.646H342.352V687.323H323.785V679.047ZM298.15 668.646H318.511V706H298.15V668.646ZM153.826 741.159H174.041V766.793H171.441C165.142 766.793 160.625 765.707 157.891 763.534C155.181 761.361 153.826 757.663 153.826 752.438V741.159ZM146.502 791C142.547 791 139.031 789.535 135.955 786.605C133.245 784.018 131.121 780.575 129.583 776.278C128.167 772.323 127.459 768.405 127.459 764.523C127.459 758.688 128.899 753.5 131.78 748.959C133.831 745.736 136.529 743.466 139.874 742.147C141.583 741.488 143.487 741.159 145.586 741.159H148.406V791H146.502ZM153.826 781.442H172.137V782.467C172.137 784.738 171.319 786.654 169.683 788.217C167.681 790.072 164.837 791 161.15 791H153.826V781.442ZM210.04 753.646H230.254V791H227.947C221.6 791 217.034 789.889 214.251 787.667C211.443 785.421 210.04 781.71 210.04 776.535V753.646ZM183.599 772.763C183.599 770.077 183.953 767.587 184.661 765.292C185.369 762.973 186.468 760.946 187.957 759.213C191.18 755.502 195.794 753.646 201.8 753.646H204.62V791H202.715C196.563 791 191.802 789.315 188.433 785.946C185.21 782.724 183.599 778.329 183.599 772.763ZM267.608 764.047C267.608 757.113 272.088 753.646 281.048 753.646H286.175V772.323H267.608V764.047ZM241.973 753.646H262.334V791H241.973V753.646Z" fill="#62609D"/>
</g>
<defs>
<filter id="filter0_d" x="-7.59424" y="601.043" width="436.094" height="309.457" filterUnits="userSpaceOnUse" color-interpolation-filters="sRGB">
<feFlood flood-opacity="0" result="BackgroundImageFix"/>
<feColorMatrix in="SourceAlpha" type="matrix" values="0 0 0 0 0 0 0 0 0 0 0 0 0 0 0 0 0 0 127 0" result="hardAlpha"/>
<feOffset dx="4" dy="4"/>
<feGaussianBlur stdDeviation="5"/>
<feComposite in2="hardAlpha" operator="out"/>
<feColorMatrix type="matrix" values="0 0 0 0 0 0 0 0 0 0 0 0 0 0 0 0 0 0 0.25 0"/>
<feBlend mode="normal" in2="BackgroundImageFix" result="effect1_dropShadow"/>
<feBlend mode="normal" in="SourceGraphic" in2="effect1_dropShadow" result="shape"/>
</filter>
<filter id="filter1_d" x="118.47" y="679.014" width="303.03" height="224.486" filterUnits="userSpaceOnUse" color-interpolation-filters="sRGB">
<feFlood flood-opacity="0" result="BackgroundImageFix"/>
<feColorMatrix in="SourceAlpha" type="matrix" values="0 0 0 0 0 0 0 0 0 0 0 0 0 0 0 0 0 0 127 0" result="hardAlpha"/>
<feOffset dx="2" dy="2"/>
<feGaussianBlur stdDeviation="2.5"/>
<feComposite in2="hardAlpha" operator="out"/>
<feColorMatrix type="matrix" values="0 0 0 0 0 0 0 0 0 0 0 0 0 0 0 0 0 0 0.25 0"/>
<feBlend mode="normal" in2="BackgroundImageFix" result="effect1_dropShadow"/>
<feBlend mode="normal" in="SourceGraphic" in2="effect1_dropShadow" result="shape"/>
</filter>
<clipPath id="clip0">
<rect width="414" height="896" fill="white"/>
</clipPath>
</defs>
</svg>
